<svg width="64" height="64" viewBox="0 0 64 64" fill="none" xmlns="http://www.w3.org/2000/svg">
    <rect width="64" height="64" rx="32" fill="#FFFDF7"/>
    <path d="M13.4155 17.4085C14.9854 16.7564 16.4949 16.4303 17.944 16.4303C19.1516 16.4303 20.3954 16.8771 21.6755 17.7708C22.3759 18.2538 23.1609 19.1957 24.0303 20.5966C24.61 21.5626 25.3466 23.3137 26.2403 25.8497L30.6601 38.3846C31.6745 41.1863 32.701 43.4083 33.7395 45.0506C34.8022 46.7171 35.7683 47.961 36.6378 48.7821C37.5072 49.6275 38.4129 50.2192 39.3549 50.5573C40.2968 50.8954 41.0697 51.0645 41.6735 51.0645C42.3014 51.0645 42.8569 51.0162 43.34 50.9196L43.3762 51.2819C42.2169 51.6683 41.0818 51.8615 39.9708 51.8615C38.8598 51.8615 37.7488 51.5717 36.6378 50.992C35.5268 50.4365 34.4882 49.6516 33.5221 48.6372C31.445 46.536 29.6819 43.3358 28.2328 39.0367L26.8199 34.9067H16.8934L14.3936 41.3553C14.2729 41.6452 14.2125 41.935 14.2125 42.2248C14.2125 42.5146 14.3332 42.8286 14.5748 43.1668C14.8404 43.4807 15.239 43.6377 15.7703 43.6377H16.0601V44H8.77825V43.6377H9.10431C9.68396 43.6377 10.2515 43.4687 10.807 43.1305C11.3625 42.7682 11.8214 42.2369 12.1837 41.5365L21.1683 20.0169C19.8641 18.1572 18.2459 17.2273 16.3137 17.2273C15.4442 17.2273 14.5144 17.4085 13.5242 17.7708L13.4155 17.4085ZM17.2919 33.8199H26.4576L23.5956 25.3787C23.0401 23.7605 22.5329 22.4925 22.074 21.5747L17.2919 33.8199Z" fill="#0D071B"/>
    <path d="M53.8856 31.2839C53.8856 35.4381 52.7626 38.6865 50.5164 41.0293C48.2944 43.3479 45.1426 44.5072 41.0609 44.5072C38.3075 44.5072 35.8198 43.9275 33.5978 42.7682C31.4 41.6089 29.6852 40.027 28.4534 38.0223C27.2458 36.0177 26.642 33.7836 26.642 31.3201C26.642 28.8324 27.2458 26.5863 28.4534 24.5817C29.661 22.577 31.3275 21.0071 33.4529 19.872C35.5783 18.7127 37.9452 18.133 40.5537 18.133C42.196 18.133 43.8625 18.3625 45.5532 18.8214C47.268 19.2561 48.6929 19.8478 49.8281 20.5966L50.5527 25.7047H50.2266C49.7194 23.676 48.548 22.094 46.7125 20.9588C44.8769 19.7995 42.836 19.2199 40.5899 19.2199C37.3777 19.2199 34.6968 20.3671 32.5472 22.6616C30.4218 24.9319 29.3591 27.7939 29.3591 31.2477C29.3591 34.7014 30.4581 37.5997 32.6559 39.9424C34.8779 42.261 37.7762 43.4203 41.3507 43.4203C44.9252 43.4203 47.8355 42.261 50.0817 39.9424C52.352 37.6238 53.4871 34.4478 53.4871 30.4144H53.8494C53.8736 30.7042 53.8856 30.9941 53.8856 31.2839Z" fill="#0D071B"/>
</svg>
